<svg xmlns="http://www.w3.org/2000/svg" viewBox="0 0 200 60" width="200" height="60">
  <defs>
    <linearGradient id="g1" x1="0%" y1="0%" x2="100%" y2="100%">
      <stop offset="0%" style="stop-color:#ff6600"/>
      <stop offset="100%" style="stop-color:#ff8533"/>
    </linearGradient>
    <linearGradient id="g2" x1="0%" y1="0%" x2="100%" y2="100%">
      <stop offset="0%" style="stop-color:#2563eb"/>
      <stop offset="100%" style="stop-color:#6366f1"/>
    </linearGradient>
  </defs>
  <polygon points="18,8 32,14 18,20 4,14" fill="url(#g1)" opacity="0.9"/>
  <polygon points="32,14 32,30 18,36 18,20" fill="#d45500" opacity="0.7"/>
  <polygon points="18,20 18,36 4,30 4,14" fill="url(#g2)" opacity="0.85"/>
  <polygon points="16,12 22,14.5 16,17" fill="white" opacity="0.95"/>
  <g transform="translate(34,6)" fill="#ffcc00">
    <polygon points="4,0 5,3 8,4 5,5 4,8 3,5 0,4 3,3"/>
  </g>
  <text x="46" y="28" font-family="Inter,system-ui,sans-serif" font-size="15" font-weight="700" fill="#1e293b">Auto<tspan fill="#ff6600">Dev</tspan> Studio</text>
</svg>
